<?xml version="1.0" standalone="no"?>
<!DOCTYPE svg PUBLIC "-//W3C//DTD SVG 20010904//EN"
 "http://www.w3.org/TR/2001/REC-SVG-20010904/DTD/svg10.dtd">
<svg version="1.0" xmlns="http://www.w3.org/2000/svg"
 width="1370.000000pt" height="1370.000000pt" viewBox="0 0 1370.000000 1370.000000"
 preserveAspectRatio="xMidYMid meet">
<metadata>
Created by potrace 1.14, written by Peter Selinger 2001-2017
</metadata>
<g transform="translate(0.000000,1370.000000) scale(0.100000,-0.100000)"
fill="#000000" stroke="none">
<path d="M6679 13595 c-96 -58 -181 -109 -189 -114 -8 -5 -143 -87 -300 -181
-157 -95 -427 -257 -600 -362 -378 -228 -878 -529 -902 -543 -33 -20 -183
-110 -200 -120 -9 -5 -36 -22 -60 -36 -24 -14 -385 -232 -803 -484 -418 -252
-962 -580 -1210 -729 -247 -149 -601 -362 -785 -473 -184 -111 -363 -219 -397
-238 l-63 -36 0 -3428 0 -3428 305 -184 c167 -101 320 -193 339 -204 19 -11
72 -42 118 -70 45 -27 98 -59 118 -71 19 -12 163 -98 319 -193 156 -94 288
-171 292 -171 5 0 9 -4 9 -9 0 -5 6 -11 13 -13 7 -2 180 -104 385 -228 205
-124 380 -229 390 -235 9 -5 66 -39 125 -75 60 -36 120 -72 135 -81 15 -9 182
-110 372 -224 386 -233 722 -435 748 -450 15 -9 486 -293 522 -315 8 -6 58
-35 110 -67 52 -31 226 -135 385 -231 160 -96 304 -183 320 -192 60 -35 200
-120 210 -128 6 -4 17 -11 25 -15 8 -4 33 -18 55 -32 22 -13 56 -34 75 -45 19
-11 49 -29 65 -39 228 -139 248 -150 264 -142 17 10 73 43 1306 786 418 252
848 511 955 575 107 65 436 262 730 440 294 177 549 330 565 340 17 9 170 101
340 204 171 102 317 190 325 195 8 5 301 182 650 392 349 211 672 406 718 433
l82 49 0 3427 0 3427 -222 133 c-123 73 -239 143 -258 155 -93 59 -170 105
-175 105 -3 0 -11 5 -18 10 -15 13 -673 409 -704 424 -13 6 -23 14 -23 19 0 4
-5 7 -10 7 -6 0 -46 23 -90 50 -44 28 -83 50 -86 50 -4 0 -21 10 -38 23 -17
13 -38 27 -46 30 -8 4 -28 15 -45 26 -99 60 -375 227 -400 241 -16 10 -91 54
-165 99 -74 45 -142 85 -150 90 -92 56 -830 502 -858 519 -20 12 -46 27 -57
32 -11 6 -49 29 -85 51 -36 23 -78 49 -95 59 -16 9 -163 97 -325 195 -162 98
-307 185 -323 194 -15 9 -210 126 -433 261 -223 135 -421 254 -440 265 -18 11
-154 93 -301 181 -148 89 -284 171 -304 183 l-35 21 -175 -105z m333 -983 c24
-11 378 -221 788 -467 410 -247 754 -453 765 -459 11 -6 34 -20 50 -32 17 -12
35 -23 41 -25 8 -3 240 -142 352 -211 15 -9 38 -23 52 -31 14 -7 79 -47 145
-87 66 -40 129 -78 140 -84 11 -6 194 -116 406 -243 254 -153 398 -245 419
-270 86 -98 109 -242 57 -356 -32 -69 -96 -135 -163 -167 -62 -29 -170 -37
-235 -17 -26 8 -323 180 -660 383 -338 203 -622 374 -631 379 -24 14 -440 264
-486 293 -20 12 -44 25 -52 29 -8 4 -19 11 -25 15 -5 5 -59 38 -120 73 -60 36
-117 69 -125 74 -65 41 -835 503 -840 504 -3 1 -93 -50 -198 -113 -106 -63
-205 -122 -220 -131 -15 -9 -69 -41 -120 -73 -51 -31 -97 -56 -102 -56 -6 0
-10 -4 -10 -10 0 -5 -4 -10 -9 -10 -5 0 -54 -28 -110 -62 -82 -49 -99 -64 -89
-73 13 -12 1083 -656 1103 -664 5 -2 24 -15 41 -28 17 -12 33 -23 36 -23 3 0
76 -43 163 -95 87 -52 162 -95 167 -95 4 0 8 -4 8 -9 0 -5 6 -11 13 -13 7 -2
241 -140 521 -308 319 -191 526 -321 554 -348 95 -94 126 -254 70 -372 -21
-44 -78 -109 -123 -140 -47 -32 -149 -61 -193 -54 -119 18 -87 3 -487 244
-176 106 -331 200 -345 207 -14 8 -37 22 -52 31 -14 9 -56 35 -93 57 -37 22
-75 45 -84 50 -18 11 -156 94 -183 110 -10 5 -55 33 -100 60 -46 28 -90 55
-100 60 -9 6 -43 26 -75 45 -31 19 -74 45 -93 56 -20 12 -92 55 -162 97 -175
106 -178 107 -249 150 -35 21 -273 163 -529 317 -255 154 -469 280 -474 280
-4 0 -36 -17 -70 -37 -33 -21 -69 -42 -79 -48 -10 -5 -148 -89 -307 -185 -160
-96 -309 -186 -333 -200 -77 -45 -82 -48 -77 -53 3 -2 210 -127 460 -277 250
-149 518 -310 595 -356 77 -46 147 -88 155 -94 8 -5 31 -19 50 -30 19 -11 49
-29 65 -40 17 -11 37 -23 45 -27 16 -8 207 -123 258 -155 15 -9 38 -23 52 -31
52 -28 75 -42 80 -48 3 -4 23 -16 45 -28 22 -12 54 -30 70 -41 17 -11 36 -23
44 -27 74 -35 666 -402 699 -433 125 -116 131 -330 14 -456 -86 -93 -208 -130
-327 -99 -37 10 -117 52 -227 118 -207 125 -214 129 -259 155 -31 17 -176 105
-219 132 -8 6 -32 20 -54 32 -21 13 -46 28 -55 33 -30 19 -266 160 -283 170
-10 6 -116 69 -236 141 -119 72 -575 346 -1012 609 -437 263 -805 486 -818
496 -150 117 -166 354 -33 486 39 40 183 133 339 221 16 9 111 67 211 127 100
61 194 117 209 126 15 9 216 130 447 269 231 139 429 258 440 264 42 23 252
150 302 182 28 19 54 34 56 34 3 0 34 17 68 39 300 183 1070 641 1094 649 70
25 173 23 237 -6z m-4507 -2763 c47 -24 85 -47 85 -51 0 -5 4 -8 8 -8 5 0 91
-49 191 -110 100 -60 186 -110 192 -110 5 0 9 -4 9 -9 0 -5 6 -11 13 -13 8 -2
1271 -758 1417 -849 131 -81 585 -349 591 -349 5 0 9 -4 9 -9 0 -5 6 -11 13
-13 7 -2 106 -59 220 -128 114 -69 215 -130 224 -135 10 -6 306 -183 658 -395
352 -212 647 -388 655 -393 8 -4 29 -16 45 -27 17 -11 35 -22 41 -25 6 -4 131
66 276 154 145 87 282 170 304 183 22 12 122 73 223 133 100 61 194 117 209
126 15 9 216 130 447 269 231 139 440 264 465 278 25 13 52 30 60 37 8 6 101
62 205 124 155 92 608 363 690 413 11 6 67 40 125 75 58 34 112 67 120 72 86
52 881 531 909 547 20 12 110 66 201 121 227 136 229 137 330 138 72 0 94 -4
142 -27 183 -86 248 -313 137 -481 -17 -26 -43 -57 -58 -69 -20 -17 -978 -599
-1108 -673 -10 -6 -89 -53 -176 -105 -87 -52 -171 -103 -187 -112 -58 -34
-416 -249 -430 -258 -8 -5 -42 -26 -75 -45 -33 -20 -134 -80 -224 -135 -91
-55 -166 -100 -168 -100 -1 0 -33 -20 -70 -43 -38 -24 -73 -46 -78 -48 -6 -2
-96 -56 -200 -119 -105 -63 -198 -119 -208 -125 -9 -5 -167 -100 -349 -210
-183 -110 -340 -204 -350 -210 -10 -5 -152 -91 -316 -190 -163 -98 -343 -206
-399 -240 l-103 -60 -1 -2655 c-1 -1460 -3 -2670 -5 -2689 -10 -82 -91 -198
-169 -238 -155 -81 -345 -31 -440 117 -53 83 -50 -91 -50 2789 l-1 2673 -764
459 c-420 253 -765 459 -767 459 -1 0 -19 12 -40 26 -21 14 -47 30 -58 35 -19
9 -47 26 -69 42 -16 11 -168 102 -186 110 -8 4 -27 15 -42 25 -14 9 -56 35
-93 57 -37 22 -75 45 -84 50 -91 55 -370 222 -383 230 -129 73 -1923 1157
-1951 1179 -132 104 -158 318 -53 451 77 99 160 137 284 131 63 -3 84 -9 157
-47z m-60 -1795 c22 -9 306 -176 632 -372 326 -196 606 -364 621 -373 15 -9
396 -238 847 -509 451 -271 832 -500 847 -509 15 -9 62 -37 105 -62 92 -55
132 -94 170 -169 l28 -55 0 -1910 0 -1910 -26 -55 c-68 -145 -238 -224 -391
-181 -44 12 -177 91 -1300 766 -265 160 -490 295 -500 300 -10 6 -77 46 -150
90 -73 44 -139 81 -145 83 -7 2 -13 8 -13 13 0 5 -4 9 -9 9 -19 0 -1010 602
-1053 640 -47 41 -93 119 -105 176 -3 16 -6 871 -6 1899 0 2090 -6 1918 71
2020 86 114 245 160 377 109z m9132 -9 c73 -33 128 -88 166 -164 l32 -65 0
-1871 c1 -1028 -3 -1889 -7 -1912 -11 -64 -43 -125 -86 -169 -30 -29 -555
-355 -739 -459 -10 -6 -92 -55 -183 -110 -91 -55 -169 -102 -175 -105 -5 -3
-65 -39 -133 -80 -68 -41 -143 -86 -166 -100 -126 -74 -195 -115 -226 -135
-44 -28 -310 -187 -330 -198 -8 -4 -27 -15 -41 -25 -15 -9 -55 -34 -90 -55
-35 -21 -71 -42 -79 -47 -86 -55 -384 -230 -391 -230 -5 0 -9 -4 -9 -10 0 -5
-4 -10 -9 -10 -5 0 -136 -77 -291 -170 -156 -94 -301 -175 -324 -181 -147 -40
-298 21 -378 152 -48 77 -46 -1 -44 2005 1 1034 5 1889 8 1902 15 49 65 127
103 158 22 18 123 83 225 144 102 60 192 114 200 119 37 23 693 418 718 432
15 9 126 76 247 149 121 73 229 138 240 144 30 17 223 133 819 492 297 178
542 324 544 324 2 0 23 14 48 31 117 80 238 95 351 44z"/>
<path d="M2663 5716 l0 -1433 21 -13 c54 -35 2332 -1403 2341 -1406 10 -4 15
2860 5 2869 -4 3 -865 521 -980 590 -17 9 -43 25 -59 35 -16 9 -58 34 -93 55
-34 21 -81 49 -103 63 -22 13 -49 29 -60 34 -11 6 -40 24 -65 40 -25 17 -57
36 -72 42 -16 7 -28 16 -28 20 0 4 -4 8 -8 8 -7 0 -332 190 -392 229 -8 6 -42
26 -75 46 -33 19 -67 40 -75 45 -25 16 -183 111 -215 130 -16 9 -53 31 -81 48
-28 18 -53 32 -56 32 -3 0 -5 -645 -5 -1434z"/>
<path d="M11070 7133 c-27 -19 -332 -203 -337 -203 -2 0 -34 -20 -73 -45 -39
-25 -72 -45 -75 -45 -3 0 -36 -20 -75 -45 -39 -25 -73 -45 -76 -45 -3 0 -25
-13 -49 -30 -24 -16 -45 -30 -47 -30 -2 0 -112 -65 -243 -145 -382 -230 -514
-309 -533 -320 -10 -5 -100 -59 -200 -120 -100 -60 -189 -115 -199 -120 -110
-62 -414 -249 -419 -257 -7 -12 -10 -2856 -3 -2863 3 -2 220 126 484 285 750
450 1503 903 1549 930 24 14 109 65 189 114 l147 88 0 1434 c0 789 -3 1434 -8
1434 -4 0 -18 -8 -32 -17z"/>
</g>
</svg>
