<?xml version="1.0" standalone="no"?>
<!DOCTYPE svg PUBLIC "-//W3C//DTD SVG 20010904//EN"
 "http://www.w3.org/TR/2001/REC-SVG-20010904/DTD/svg10.dtd">
<svg version="1.0" xmlns="http://www.w3.org/2000/svg"
 width="1370.000000pt" height="1370.000000pt" viewBox="0 0 1370.000000 1370.000000"
 preserveAspectRatio="xMidYMid meet">
<metadata>
Created by potrace 1.14, written by Peter Selinger 2001-2017
</metadata>
<g transform="translate(0.000000,1370.000000) scale(0.100000,-0.100000)"
fill="#000000" stroke="none">
<path d="M6780 13658 c-36 -23 -78 -49 -95 -58 -16 -10 -721 -433 -1565 -940
-844 -508 -1548 -931 -1565 -940 -16 -10 -352 -211 -745 -448 -393 -236 -848
-510 -1010 -607 -162 -97 -371 -223 -465 -279 l-170 -102 0 -3434 0 -3434 255
-153 c140 -84 264 -158 275 -165 11 -6 709 -425 1550 -931 842 -505 1535 -922
1540 -927 6 -4 30 -19 55 -32 25 -14 195 -116 378 -227 184 -110 338 -201 343
-201 5 0 9 -4 9 -9 0 -5 8 -11 18 -14 9 -4 35 -17 57 -30 22 -14 90 -54 150
-91 61 -36 117 -70 125 -75 740 -446 923 -554 933 -554 7 0 85 45 175 99 90
54 180 108 200 120 20 12 582 349 1247 749 666 400 1224 736 1240 745 52 30
2820 1693 2825 1697 6 5 6 6853 0 6862 -4 6 -1120 679 -1203 726 -10 5 -100
59 -200 120 -100 60 -190 114 -199 120 -20 11 -430 259 -486 293 -20 12 -44
25 -52 29 -8 4 -17 10 -20 13 -3 4 -36 24 -73 46 -84 48 -16 7 -587 351 -267
160 -771 463 -1120 672 -349 209 -640 385 -646 390 -6 5 -29 19 -50 30 -21 12
-52 30 -69 40 -212 129 -972 584 -980 587 -5 1 -39 -16 -75 -38z m170 -1070
c19 -6 276 -155 570 -331 294 -177 695 -417 890 -534 195 -117 360 -216 365
-221 6 -4 39 -25 75 -45 36 -21 72 -42 80 -47 8 -6 65 -39 125 -75 61 -35 115
-68 120 -73 6 -5 15 -11 20 -13 6 -2 92 -53 193 -114 100 -60 190 -115 200
-120 237 -137 476 -289 510 -324 66 -67 86 -120 87 -221 0 -71 -4 -94 -26
-140 -71 -151 -245 -227 -399 -173 -30 11 -458 262 -950 558 -1034 621 -1018
612 -1076 646 -25 14 -53 31 -62 37 -43 30 -184 112 -193 112 -5 0 -9 5 -9 10
0 6 -5 10 -10 10 -6 0 -29 12 -53 27 -69 45 -101 63 -119 69 -10 4 -18 10 -18
15 0 5 -5 9 -10 9 -6 0 -29 12 -53 28 -23 15 -46 29 -52 32 -5 3 -76 45 -157
93 l-147 88 -105 -63 c-723 -433 -755 -453 -743 -465 7 -7 49 -34 94 -60 45
-26 124 -73 175 -104 122 -74 1825 -1097 1860 -1118 411 -241 477 -289 521
-376 27 -56 37 -124 26 -187 -13 -75 -18 -90 -44 -129 -92 -140 -264 -192
-409 -125 -28 13 -269 154 -535 315 -266 160 -488 291 -492 291 -5 0 -9 5 -9
10 0 6 -4 10 -9 10 -8 0 -136 74 -191 110 -12 8 -435 262 -505 303 -11 7 -39
24 -62 40 -23 15 -44 27 -48 27 -3 0 -24 12 -48 27 -23 15 -51 33 -62 39 -11
6 -220 131 -464 278 -244 147 -447 268 -451 269 -5 2 -842 -495 -859 -510 -8
-6 21 -29 69 -56 36 -20 238 -141 512 -306 14 -9 64 -38 110 -65 45 -27 106
-64 135 -83 28 -18 56 -33 62 -33 6 0 11 -4 11 -10 0 -5 4 -10 9 -10 9 0 166
-91 186 -108 6 -5 15 -11 21 -13 5 -2 329 -195 719 -429 478 -287 724 -440
755 -470 70 -68 94 -127 94 -230 1 -73 -3 -93 -27 -142 -34 -70 -85 -121 -157
-156 -47 -23 -67 -27 -140 -26 -63 0 -95 5 -125 20 -34 16 -209 120 -343 202
-20 13 -45 25 -54 29 -10 3 -18 9 -18 14 0 5 -4 9 -9 9 -5 0 -71 38 -147 85
-77 47 -146 88 -154 92 -8 3 -26 14 -40 23 -14 10 -41 27 -60 37 -19 11 -336
202 -705 423 -368 222 -680 408 -692 414 -13 6 -23 14 -23 19 0 4 -5 7 -11 7
-6 0 -42 20 -80 45 -38 25 -72 45 -74 45 -3 0 -54 29 -113 65 -59 36 -114 70
-122 74 -308 184 -433 262 -466 293 -96 89 -127 252 -70 370 15 32 42 73 60
91 25 26 256 173 379 242 10 5 358 215 774 465 643 387 1382 831 1846 1110
157 94 238 112 347 78z m-4510 -2713 c20 -7 348 -200 730 -430 382 -230 709
-426 725 -435 60 -35 491 -294 540 -325 43 -27 1215 -731 1292 -776 16 -9 272
-163 571 -343 299 -179 548 -326 554 -326 5 0 66 34 135 75 68 41 128 75 133
75 4 0 10 3 12 8 2 5 1930 1167 2095 1263 16 9 127 76 248 149 121 73 229 138
240 144 78 44 271 162 273 168 2 5 8 8 13 8 5 0 118 66 251 146 134 81 257
155 273 164 17 10 136 82 265 160 129 78 249 150 265 160 17 10 61 36 100 59
99 58 154 74 234 69 122 -9 218 -73 271 -181 66 -135 35 -289 -79 -394 -20
-18 -39 -33 -42 -33 -3 0 -77 -43 -165 -96 -87 -54 -172 -105 -189 -114 -16
-10 -417 -250 -890 -535 -473 -285 -876 -527 -897 -539 -20 -11 -527 -316
-1127 -676 l-1091 -655 0 -2644 c0 -2003 -3 -2654 -12 -2685 -6 -22 -20 -53
-30 -68 -10 -14 -18 -28 -18 -31 0 -12 -57 -66 -95 -90 -109 -68 -249 -66
-353 5 -60 42 -86 71 -119 138 l-28 55 -1 2656 c0 1461 -3 2660 -7 2665 -3 5
-25 20 -49 32 -24 13 -83 47 -131 77 -48 30 -92 55 -98 55 -5 0 -9 4 -9 9 0 5
-8 11 -17 14 -10 4 -35 16 -55 29 -77 48 -1142 688 -1144 688 -1 0 -61 37
-135 82 -74 44 -147 89 -164 98 -16 10 -95 57 -175 105 -80 49 -154 93 -165
99 -11 6 -87 52 -168 101 -81 50 -155 95 -165 100 -24 14 -264 158 -283 170
-9 5 -45 27 -80 48 -35 21 -73 43 -84 50 -10 7 -49 30 -85 51 -36 21 -81 49
-100 61 -50 31 -398 239 -440 262 -19 11 -90 54 -158 96 -68 43 -125 77 -127
77 -2 0 -46 26 -98 59 -52 32 -98 60 -103 62 -5 2 -87 51 -182 108 -116 70
-186 119 -212 149 -128 145 -97 377 65 489 72 50 201 67 285 38z m21 -1818
c32 -13 1742 -1036 1764 -1055 6 -5 15 -11 20 -13 6 -2 70 -40 143 -84 73 -44
141 -84 150 -90 10 -5 77 -46 150 -90 72 -44 140 -84 149 -90 10 -5 108 -64
218 -130 205 -123 273 -178 310 -251 11 -21 66 -122 123 -223 56 -100 102
-185 102 -187 0 -2 13 -25 29 -52 58 -99 55 0 56 -1632 0 -828 -3 -1527 -8
-1554 -21 -120 -73 -174 -300 -309 -189 -113 -244 -133 -335 -124 -58 6 -123
31 -179 69 -23 15 -44 28 -48 28 -3 0 -11 5 -18 10 -9 8 -580 352 -715 431
-15 9 -192 115 -394 237 -748 450 -1143 687 -1153 691 -5 2 -36 21 -67 43 -31
21 -59 38 -62 38 -18 0 -265 160 -297 192 -41 41 -72 99 -84 156 -4 18 -7 867
-7 1887 0 1956 -2 1886 45 1965 82 139 262 199 408 137z m8719 -160 c28 -7
104 -51 200 -115 197 -133 234 -163 265 -216 54 -91 51 -18 51 -1646 l-1
-1515 -37 -75 c-34 -69 -80 -154 -138 -255 -12 -22 -38 -69 -58 -105 -61 -114
-110 -194 -139 -227 -22 -26 -979 -613 -999 -613 -3 0 -10 -5 -17 -11 -36 -31
-1812 -1089 -1851 -1102 -30 -10 -71 -15 -116 -13 -127 6 -226 74 -283 196
l-30 65 0 1850 c0 1018 4 1870 8 1893 18 109 79 177 248 277 65 39 694 416
1398 839 1074 646 1290 772 1337 782 59 12 86 11 162 -9z"/>
<path d="M2669 7164 c-1 -5 -2 -645 -3 -1423 l-1 -1413 40 -27 c22 -15 175
-107 340 -206 165 -98 323 -193 352 -212 28 -18 56 -33 62 -33 6 0 11 -4 11
-10 0 -5 4 -10 9 -10 9 0 166 -91 186 -108 6 -5 15 -11 20 -13 9 -3 203 -119
309 -184 45 -28 262 -158 284 -170 34 -20 698 -419 718 -432 l21 -13 0 1307 0
1307 -99 178 -100 178 -526 316 c-290 174 -540 325 -557 334 -51 30 -1019 612
-1042 628 -13 8 -24 10 -24 6z"/>
<path d="M10730 6988 c-162 -98 -306 -184 -320 -192 -14 -7 -108 -64 -210
-126 -102 -62 -201 -122 -221 -134 -21 -11 -320 -191 -665 -399 l-629 -377 1
-1413 c1 -776 2 -1418 3 -1424 0 -8 28 4 69 30 58 37 1852 1115 1899 1142 10
6 55 32 101 59 l82 50 99 180 99 181 -1 1298 c0 714 -3 1299 -6 1301 -3 1
-139 -78 -301 -176z"/>
</g>
</svg>
